# xmcd
# 
# Track frame offsets:
#     150
#     23295
#     47055
#     68795
#     89380
#     108162
#     126365
#     147737
#     165745
#     190750
#     213482
#     234010
#     252255
#     274370
#     294580
#     313972
#     334425
# 
# Disc length: 4711
# 
# Revision: 4
# Processed by: cddbd v1.5.2PL0 Copyright (c) Steve Scherf et al.
# Submitted via: fre:ac v1.0.31
# 
DISCID=02126511
DTITLE=石川さゆり - オリジナル大全集 とき (Section-1)
DYEAR=2002
DGENRE=JPop
TTITLE0=01 夢の浮橋
TTITLE1=02 転がる石
TTITLE2=03 涙つづり
TTITLE3=04 人生情け船
TTITLE4=05 夏の夜の夢
TTITLE5=06 酔って候
TTITLE6=07 大阪のおんな
TTITLE7=08 恋は天下のまわりもの
TTITLE8=09 風の盆恋歌
TTITLE9=10 滝の白糸
TTITLE10=11 さよならの翼
TTITLE11=12 夫婦善哉
TTITLE12=13 天城越え
TTITLE13=14 裏町夫婦草
TTITLE14=15 大阪つばめ
TTITLE15=16 紫陽花ばなし
TTITLE16=17 波止場しぐれ
EXTD=YEAR: 2002
EXTT0=
EXTT1=
EXTT2=
EXTT3=
EXTT4=
EXTT5=
EXTT6=
EXTT7=
EXTT8=
EXTT9=
EXTT10=
EXTT11=
EXTT12=
EXTT13=
EXTT14=
EXTT15=
EXTT16=
PLAYORDER=
